<svg width="1109" height="200" viewBox="0 0 1109 200" fill="none" xmlns="http://www.w3.org/2000/svg">
<path d="M0 163.52H27.552V113.12H58.688C93.184 113.12 121.408 94.752 121.408 59.584C121.408 27.552 98.336 6.71999 61.824 6.71999H0V163.52ZM27.552 88.256V31.808H59.584C80.192 31.808 93.408 41.44 93.408 59.808C93.408 76.608 80.416 88.256 59.584 88.256H27.552Z" fill="#F5F5F5"/>
<path d="M146.489 163.52H173.593V96.768C173.593 78.4 184.569 67.424 200.249 67.424C216.377 67.424 225.561 77.952 225.561 96.32V163.52H252.665V88.256C252.665 60.704 237.209 42.784 210.553 42.784C192.185 42.784 181.209 52.416 173.593 63.616V0H146.489V163.52Z" fill="#F5F5F5"/>
<path d="M341.619 166.208C378.131 166.208 405.011 138.208 405.011 104.608C405.011 70.336 378.355 42.784 342.067 42.784C305.779 42.784 278.899 70.784 278.899 104.608C278.899 138.656 305.555 166.208 341.619 166.208ZM342.067 142.688C321.011 142.688 306.003 125.216 306.003 104.608C306.003 83.552 319.891 66.528 341.619 66.528C362.899 66.528 377.907 83.776 377.907 104.608C377.907 125.44 364.019 142.688 342.067 142.688Z" fill="#F5F5F5"/>
<path d="M472.262 165.536C482.342 165.536 489.958 163.296 496.678 159.488V137.312C491.302 140 485.926 141.344 479.878 141.344C470.694 141.344 465.318 137.088 465.318 126.56V68.544H497.126V45.248H465.318V12.768H438.214V45.248H423.206V68.544H438.214V130.816C438.214 156.8 452.326 165.536 472.262 165.536Z" fill="#F5F5F5"/>
<path d="M577.432 166.208C613.944 166.208 640.824 138.208 640.824 104.608C640.824 70.336 614.168 42.784 577.88 42.784C541.592 42.784 514.712 70.784 514.712 104.608C514.712 138.656 541.368 166.208 577.432 166.208ZM577.88 142.688C556.824 142.688 541.816 125.216 541.816 104.608C541.816 83.552 555.704 66.528 577.432 66.528C598.712 66.528 613.72 83.776 613.72 104.608C613.72 125.44 599.832 142.688 577.88 142.688Z" fill="#F5F5F5"/>
<path d="M710.091 163.52H737.867V32.256H787.594V6.71999H660.362V32.256H710.091V163.52Z" fill="#F5F5F5"/>
<path d="M809.968 27.104H839.088V1.344H809.968V27.104ZM811.088 163.52H838.192V45.248H811.088V163.52Z" fill="#F5F5F5"/>
<path d="M873.614 199.36H900.718V145.152C909.006 156.128 921.326 165.984 940.814 165.984C969.038 165.984 995.918 143.808 995.918 104.608C995.918 64.96 968.814 42.784 940.814 42.784C921.774 42.784 909.454 52.64 900.718 64.96V45.248H873.614V199.36ZM934.542 142.464C916.174 142.464 900.046 127.456 900.046 104.608C900.046 81.536 916.174 66.304 934.542 66.304C952.91 66.304 968.366 81.312 968.366 104.16C968.366 127.904 953.134 142.464 934.542 142.464Z" fill="#F5F5F5"/>
<path d="M1064.22 165.76C1088.86 165.76 1108.12 153.44 1108.12 128.576C1108.12 106.848 1088.64 99.008 1071.39 93.632C1070.72 93.408 1069.82 93.184 1069.15 92.96C1056.16 88.704 1044.73 85.12 1044.73 77.056C1044.73 69.664 1050.78 64.736 1061.31 64.736C1071.16 64.736 1083.26 68.992 1094.68 75.936L1105.44 56.672C1092.89 48.384 1076.76 43.232 1061.98 43.232C1038.46 43.232 1019.87 56.896 1019.87 79.296C1019.87 102.368 1039.36 109.536 1056.83 114.688C1057.5 114.912 1058.17 115.136 1058.84 115.36C1071.84 119.168 1083.26 122.304 1083.26 131.04C1083.26 139.328 1076.54 144.256 1064.89 144.256C1052.8 144.256 1038.91 139.328 1026.14 129.696L1014.04 148.064C1028.83 159.712 1047.42 165.76 1064.22 165.76Z" fill="#F5F5F5"/>
</svg>
