<svg width="374" height="250" viewBox="0 0 374 250" fill="none" xmlns="http://www.w3.org/2000/svg">
<path d="M261 60C259.89 59.65 258.67 59.5 257.5 59.5C255.55 59.5 253.45 59.9 252 61C250.55 59.9 248.45 59.5 246.5 59.5C244.55 59.5 242.45 59.9 241 61V75.65C241 75.9 241.25 76.15 241.5 76.15C241.6 76.15 241.65 76.1 241.75 76.1C243.1 75.45 245.05 75 246.5 75C248.45 75 250.55 75.4 252 76.5C253.35 75.65 255.8 75 257.5 75C259.15 75 260.85 75.3 262.25 76.05C262.35 76.1 262.4 76.1 262.5 76.1C262.75 76.1 263 75.85 263 75.6V61C262.4 60.55 261.75 60.25 261 60ZM261 73.5C259.9 73.15 258.7 73 257.5 73C255.8 73 253.35 73.65 252 74.5V63C253.35 62.15 255.8 61.5 257.5 61.5C258.7 61.5 259.9 61.65 261 62V73.5Z" fill="#282828"/>
<path d="M24.9999 112.17L20.8299 108L19.4099 109.41L24.9999 115L36.9999 103L35.5899 101.59L24.9999 112.17Z" fill="#282828"/>
<path d="M124.441 75.3923L129.691 66.299C130.104 65.5846 129.857 64.6625 129.142 64.25L120.049 59C119.335 58.5875 118.413 58.8346 118 59.549L112.75 68.6423C112.338 69.3568 112.585 70.2788 113.299 70.6913L122.392 75.9413C123.107 76.3538 124.029 76.1068 124.441 75.3923ZM118.385 67.1324L118.88 70.025L122.844 68.4082L123.517 73.9928L114.424 68.7428L118.385 67.1324Z" fill="#282828"/>
<path d="M128.5 73.4C129.826 73.4 130.9 72.3255 130.9 71C130.9 69.6745 129.826 68.6 128.5 68.6C127.175 68.6 126.1 69.6745 126.1 71C126.1 72.3255 127.175 73.4 128.5 73.4Z" fill="#282828"/>
<path d="M126.25 63.5L124.878 65H122.5C121.675 65 121 65.675 121 66.5V75.5C121 76.325 121.675 77 122.5 77H134.5C135.325 77 136 76.325 136 75.5V66.5C136 65.675 135.325 65 134.5 65H132.122L130.75 63.5H126.25ZM128.5 74.75C126.43 74.75 124.75 73.07 124.75 71C124.75 68.93 126.43 67.25 128.5 67.25C130.57 67.25 132.25 68.93 132.25 71C132.25 73.07 130.57 74.75 128.5 74.75Z" fill="#282828"/>
<path d="M68 107H55.83L61.42 101.41L60 100L52 108L60 116L61.41 114.59L55.83 109H68V107Z" fill="#282828"/>
<path d="M29 144H41.17L35.58 138.41L37 137L45 145L37 153L35.59 151.59L41.17 146H29V144Z" fill="#282828"/>
<path d="M73 137L73 149.17L78.59 143.58L80 145L72 153L64 145L65.41 143.59L71 149.17L71 137L73 137Z" fill="#282828"/>
<path d="M73 190L73 177.83L78.59 183.42L80 182L72 174L64 182L65.41 183.41L71 177.83L71 190L73 190Z" fill="#282828"/>
<path d="M150 19.77L151.77 18L161.67 27.9L151.77 37.8L150 36.03L158.13 27.9L150 19.77Z" fill="#282828"/>
<path fill-rule="evenodd" clip-rule="evenodd" d="M196.85 22.95L197.735 23.835L187.835 33.735L177.935 23.835L178.968 22.9175L187.835 31.965L196.85 22.95Z" fill="#282828"/>
<path d="M219.835 22.265L229.735 32.165L228.85 33.05L219.835 24.035L210.82 33.05L209.935 32.165L219.835 22.265Z" fill="#282828"/>
<path d="M129.67 19.87L127.9 18.1L118 28L127.9 37.9L129.67 36.13L121.54 28L129.67 19.87Z" fill="#282828"/>
<path d="M38 33.7143V22.2857C38 21.0286 36.9412 20 35.6471 20H20.3529C19.0588 20 18 21.0286 18 22.2857V33.7143C18 34.9714 19.0588 36 20.3529 36H35.6471C36.9412 36 38 34.9714 38 33.7143ZM25.0588 32.5714V23.4286L32.1176 28L25.0588 32.5714Z" fill="#282828"/>
<path d="M25.0588 32.5714V23.4286L32.1176 28L25.0588 32.5714Z" fill="#282828"/>
<path d="M70 73.7143V62.2857C70 61.0286 68.9412 60 67.6471 60H52.3529C51.0588 60 50 61.0286 50 62.2857V73.7143C50 74.9714 51.0588 76 52.3529 76H67.6471C68.9412 76 70 74.9714 70 73.7143ZM57.0588 72.5714V63.4286L64.1176 68L57.0588 72.5714Z" fill="#282828"/>
<path d="M99 59H85C83.9 59 83 59.9 83 61V75C83 76.1 83.9 77 85 77H99C100.1 77 101 76.1 101 75V61C101 59.9 100.1 59 99 59ZM94 73H87V71H94V73ZM97 69H87V67H97V69ZM97 65H87V63H97V65Z" fill="#282828"/>
<path fill-rule="evenodd" clip-rule="evenodd" d="M252 24C253.1 24 254 23.1 254 22C254 20.9 253.1 20 252 20C250.9 20 250 20.9 250 22C250 23.1 250.9 24 252 24ZM252 26C250.9 26 250 26.9 250 28C250 29.1 250.9 30 252 30C253.1 30 254 29.1 254 28C254 26.9 253.1 26 252 26ZM252 32C250.9 32 250 32.9 250 34C250 35.1 250.9 36 252 36C253.1 36 254 35.1 254 34C254 32.9 253.1 32 252 32Z" fill="#282828"/>
<path d="M228 58H212C210.9 58 210.01 58.9 210.01 60L210 78L214 74H228C229.1 74 230 73.1 230 72V60C230 58.9 229.1 58 228 58ZM214 65H226V67H214V65ZM222 70H214V68H222V70ZM226 64H214V62H226V64Z" fill="#282828"/>
<path d="M92 108C94.21 108 96 106.21 96 104C96 101.79 94.21 100 92 100C89.79 100 88 101.79 88 104C88 106.21 89.79 108 92 108ZM92 110C89.33 110 84 111.34 84 114V116H100V114C100 111.34 94.67 110 92 110Z" fill="#282828"/>
<path d="M294 32V20C294 18.9 293.1 18 292 18H280C278.9 18 278 18.9 278 20V32C278 33.1 278.9 34 280 34H292C293.1 34 294 33.1 294 32ZM283 28L285.03 30.71L288 27L292 32H280L283 28ZM274 22V36C274 37.1 274.9 38 276 38H290V36H276V22H274Z" fill="#282828"/>
<path d="M92 20.5C87 20.5 82.73 23.61 81 28C82.73 32.39 87 35.5 92 35.5C97 35.5 101.27 32.39 103 28C101.27 23.61 97 20.5 92 20.5ZM92 33C89.24 33 87 30.76 87 28C87 25.24 89.24 23 92 23C94.76 23 97 25.24 97 28C97 30.76 94.76 33 92 33ZM92 25C90.34 25 89 26.34 89 28C89 29.66 90.34 31 92 31C93.66 31 95 29.66 95 28C95 26.34 93.66 25 92 25Z" fill="#282828"/>
<path d="M55.6448 27.901L51.4203 24.04C49.7571 25.697 49.1269 27.357 49.116 27.391L49 27.707L49.1149 28.023C49.139 28.09 51.6489 34.707 60.0005 34.707C61.017 34.707 61.9427 34.605 62.7928 34.434L59.7883 31.688C58.7065 31.6395 57.6831 31.225 56.9172 30.525C56.1514 29.825 55.6978 28.8897 55.6448 27.901ZM60.0005 20.707C57.9709 20.707 56.3078 21.111 54.9215 21.705L50.8677 18L49.3206 19.414L69.0152 37.414L70.5623 36L66.9538 32.702C69.8402 30.749 70.8698 28.065 70.8851 28.023L71 27.707L70.8851 27.391C70.861 27.324 68.3522 20.707 60.0005 20.707ZM62.086 28.253C62.2906 27.576 62.1166 26.814 61.5477 26.293C60.9787 25.772 60.1439 25.614 59.4031 25.801L57.7532 24.293C58.4293 23.913 59.2068 23.7103 60.0005 23.707C62.4142 23.707 64.3771 25.501 64.3771 27.707C64.3739 28.4323 64.1516 29.1427 63.7349 29.76L62.086 28.253Z" fill="#282828"/>
<path d="M119.354 104.646C119.158 104.451 118.842 104.451 118.646 104.646C118.451 104.842 118.451 105.158 118.646 105.354L119.354 104.646ZM124 110L123.646 110.354C123.842 110.549 124.158 110.549 124.354 110.354L124 110ZM129.354 105.354C129.549 105.158 129.549 104.842 129.354 104.646C129.158 104.451 128.842 104.451 128.646 104.646L129.354 105.354ZM118.646 105.354L123.646 110.354L124.354 109.646L119.354 104.646L118.646 105.354ZM124.354 110.354L129.354 105.354L128.646 104.646L123.646 109.646L124.354 110.354Z" fill="#282828"/>
<path d="M182 115C182 116.1 182.9 117 184 117H192C193.1 117 194 116.1 194 115V103H182V115ZM195 100H191.5L190.5 99H185.5L184.5 100H181V102H195V100Z" fill="#282828"/>
<path d="M162 112.08C161.24 112.08 160.56 112.38 160.04 112.85L152.91 108.7C152.96 108.47 153 108.24 153 108C153 107.76 152.96 107.53 152.91 107.3L159.96 103.19C160.5 103.69 161.21 104 162 104C163.66 104 165 102.66 165 101C165 99.34 163.66 98 162 98C160.34 98 159 99.34 159 101C159 101.24 159.04 101.47 159.09 101.7L152.04 105.81C151.5 105.31 150.79 105 150 105C148.34 105 147 106.34 147 108C147 109.66 148.34 111 150 111C150.79 111 151.5 110.69 152.04 110.19L159.16 114.35C159.11 114.56 159.08 114.78 159.08 115C159.08 116.61 160.39 117.92 162 117.92C163.61 117.92 164.92 116.61 164.92 115C164.92 113.39 163.61 112.08 162 112.08Z" fill="#282828"/>
<path d="M227 102.41L225.59 101L220 106.59L214.41 101L213 102.41L218.59 108L213 113.59L214.41 115L220 109.41L225.59 115L227 113.59L221.41 108L227 102.41Z" fill="#282828"/>
<path d="M188.258 152.842L188 152.686L187.742 152.842L182.576 155.96L183.947 150.084L184.015 149.79L183.787 149.592L179.223 145.638L185.232 145.128L185.533 145.103L185.65 144.825L188 139.281L190.35 144.825L190.467 145.103L190.768 145.128L196.777 145.638L192.213 149.592L191.985 149.79L192.053 150.084L193.424 155.96L188.258 152.842Z" stroke="#282828"/>
<path d="M220.258 152.842L220 152.686L219.742 152.842L214.576 155.96L215.947 150.084L216.015 149.79L215.787 149.592L211.223 145.638L217.232 145.128L217.533 145.103L217.65 144.825L220 139.281L222.35 144.825L222.467 145.103L222.768 145.128L228.777 145.638L224.213 149.592L223.985 149.79L224.053 150.084L225.424 155.96L220.258 152.842Z" fill="#282828" stroke="#282828"/>
<path d="M308 194.267C308 193.28 307.918 192.56 307.741 191.813H296.245V196.267H302.993C302.857 197.373 302.122 199.04 300.49 200.16L300.467 200.309L304.102 203.069L304.354 203.093C306.667 201 308 197.92 308 194.267Z" fill="#4285F4"/>
<path d="M296.245 206C299.551 206 302.327 204.933 304.354 203.093L300.49 200.16C299.456 200.867 298.068 201.36 296.245 201.36C293.007 201.36 290.259 199.267 289.279 196.373L289.135 196.385L285.356 199.252L285.306 199.387C287.32 203.307 291.456 206 296.245 206Z" fill="#34A853"/>
<path d="M289.279 196.373C289.02 195.627 288.871 194.827 288.871 194C288.871 193.173 289.02 192.373 289.265 191.627L289.258 191.468L285.431 188.555L285.306 188.613C284.476 190.24 284 192.067 284 194C284 195.933 284.476 197.76 285.306 199.387L289.279 196.373Z" fill="#FBBC05"/>
<path d="M296.245 186.64C298.544 186.64 300.095 187.613 300.98 188.427L304.435 185.12C302.313 183.187 299.551 182 296.245 182C291.456 182 287.32 184.693 285.306 188.613L289.265 191.627C290.259 188.733 293.007 186.64 296.245 186.64Z" fill="#EB4335"/>
<path d="M248 144.24V140.5C248 139.12 249.12 138 250.5 138C251.88 138 253 139.12 253 140.5V144.24C254.21 143.43 255 142.06 255 140.5C255 138.01 252.99 136 250.5 136C248.01 136 246 138.01 246 140.5C246 142.06 246.79 143.43 248 144.24ZM257.84 148.87L253.3 146.61C253.13 146.54 252.95 146.5 252.76 146.5H252V140.5C252 139.67 251.33 139 250.5 139C249.67 139 249 139.67 249 140.5V151.24L245.57 150.52C245.49 150.51 245.42 150.49 245.33 150.49C245.02 150.49 244.74 150.62 244.54 150.82L243.75 151.62L248.69 156.56C248.96 156.83 249.34 157 249.75 157H256.54C257.29 157 257.87 156.45 257.98 155.72L258.73 150.45C258.74 150.38 258.75 150.31 258.75 150.25C258.75 149.63 258.37 149.09 257.84 148.87Z" fill="#282828"/>
<circle cx="289" cy="147" r="11.5" fill="#167BD9" stroke="#F5F5F5"/>
<path d="M286.5 150.475L283.025 147L281.842 148.175L286.5 152.833L296.5 142.833L295.325 141.658L286.5 150.475Z" fill="#F5F5F5"/>
<path d="M324 146H322V148H324V146ZM328 146H326V148H328V146ZM332 146H330V148H332V146ZM334 139H333V137H331V139H323V137H321V139H320C318.89 139 318.01 139.9 318.01 141L318 155C318 156.1 318.89 157 320 157H334C335.1 157 336 156.1 336 155V141C336 139.9 335.1 139 334 139ZM334 155H320V144H334V155Z" fill="#282828"/>
<path d="M348 198V184C348 182.9 347.1 182 346 182H332C330.9 182 330 182.9 330 184V198C330 199.1 330.9 200 332 200H346C347.1 200 348 199.1 348 198ZM335.5 192.5L338 195.51L341.5 191L346 197H332L335.5 192.5Z" fill="black"/>
<path d="M344 213.01L334 213C332.9 213 332 213.9 332 215V233C332 234.1 332.9 235 334 235H344C345.1 235 346 234.1 346 233V215C346 213.9 345.1 213.01 344 213.01ZM344 231H334V217H344V231Z" fill="black"/>
<path d="M299 227V234H285V227H283V234C283 235.1 283.9 236 285 236H299C300.1 236 301 235.1 301 234V227H299ZM293 227.67L295.59 225.09L297 226.5L292 231.5L287 226.5L288.41 225.09L291 227.67V218H293V227.67Z" fill="#282828"/>
<path d="M265.579 208.855C265.719 208.39 265.579 208.049 264.917 208.049H262.724C262.166 208.049 261.911 208.344 261.771 208.668C261.771 208.668 260.656 211.387 259.076 213.15C258.566 213.663 258.333 213.825 258.055 213.825C257.916 213.825 257.714 213.663 257.714 213.198V208.855C257.714 208.297 257.553 208.049 257.088 208.049H253.642C253.294 208.049 253.084 208.307 253.084 208.553C253.084 209.081 253.874 209.203 253.955 210.691V213.919C253.955 214.626 253.828 214.755 253.548 214.755C252.805 214.755 250.997 212.026 249.924 208.902C249.715 208.295 249.504 208.05 248.944 208.05H246.752C246.125 208.05 246 208.345 246 208.669C246 209.251 246.743 212.131 249.461 215.94C251.273 218.541 253.824 219.951 256.148 219.951C257.541 219.951 257.713 219.638 257.713 219.098V217.132C257.713 216.506 257.846 216.38 258.287 216.38C258.611 216.38 259.169 216.544 260.47 217.797C261.956 219.283 262.202 219.95 263.037 219.95H265.229C265.855 219.95 266.168 219.637 265.988 219.019C265.791 218.404 265.081 217.509 264.139 216.45C263.627 215.846 262.862 215.196 262.629 214.871C262.304 214.452 262.398 214.267 262.629 213.895C262.63 213.896 265.301 210.134 265.579 208.855Z" fill="#167BD9"/>
<g clip-path="url(#clip0)">
<path d="M238.675 227C239.407 227 240 226.407 240 225.675V204.325C240 203.593 239.407 203 238.675 203H217.325C216.593 203 216 203.593 216 204.325V225.675C216 226.407 216.593 227 217.325 227H238.675Z" fill="#395185"/>
<path d="M232.559 227V217.706H235.679L236.146 214.084H232.559V211.771C232.559 210.723 232.851 210.008 234.355 210.008L236.273 210.007V206.768C235.941 206.723 234.802 206.625 233.478 206.625C230.712 206.625 228.819 208.313 228.819 211.413V214.084H225.691V217.706H228.819V227H232.559Z" fill="white"/>
</g>
<path d="M199 205C192.373 205 187 210.373 187 217C187 223.627 192.373 229 199 229C205.627 229 211 223.627 211 217C211 210.373 205.627 205 199 205Z" fill="#40B3E0"/>
<path d="M204.839 211.903L202.696 222.709C202.696 222.709 202.396 223.459 201.572 223.099L196.626 219.307L194.827 218.438L191.8 217.418C191.8 217.418 191.335 217.254 191.29 216.894C191.245 216.534 191.815 216.339 191.815 216.339L203.85 211.618C203.85 211.618 204.839 211.184 204.839 211.903" fill="white"/>
<path d="M196.245 222.588C196.245 222.588 196.101 222.574 195.921 222.005C195.741 221.435 194.827 218.438 194.827 218.438L202.096 213.821C202.096 213.821 202.516 213.567 202.501 213.821C202.501 213.821 202.576 213.866 202.351 214.076C202.126 214.286 196.64 219.217 196.64 219.217" fill="#D2E5F1"/>
<path d="M198.522 220.761L196.566 222.544C196.566 222.544 196.413 222.661 196.245 222.588L196.62 219.275" fill="#B5CFE4"/>
<path d="M150.104 230.836L151.639 225.261C150.693 223.626 150.195 221.772 150.196 219.884C150.196 213.951 155.047 209.124 160.998 209.124C163.89 209.124 166.6 210.247 168.639 212.278C170.678 214.309 171.8 217.014 171.8 219.889C171.8 225.822 166.949 230.649 160.998 230.649H160.992C159.184 230.649 157.408 230.195 155.83 229.34L150.104 230.836V230.836Z" fill="url(#paint0_linear)"/>
<path d="M149.713 231.227L151.301 225.454C150.324 223.765 149.804 221.846 149.809 219.884C149.809 213.737 154.832 208.739 161.003 208.739C163.997 208.739 166.809 209.899 168.918 212.005C171.032 214.111 172.197 216.912 172.191 219.889C172.191 226.036 167.169 231.034 160.997 231.034H160.992C159.123 231.033 157.284 230.567 155.642 229.676L149.713 231.227V231.227ZM155.921 227.656L156.259 227.859C157.687 228.704 159.323 229.147 160.992 229.153H160.998C166.122 229.153 170.297 224.999 170.297 219.889C170.297 217.415 169.331 215.089 167.576 213.336C165.822 211.583 163.482 210.621 160.998 210.621C155.868 210.621 151.693 214.774 151.693 219.884C151.693 221.632 152.181 223.337 153.115 224.812L153.335 225.165L152.396 228.581L155.921 227.656Z" fill="white"/>
<path d="M158.202 215.218C157.993 214.753 157.773 214.742 157.574 214.737C157.413 214.731 157.225 214.731 157.038 214.731C156.85 214.731 156.549 214.801 156.292 215.079C156.034 215.357 155.315 216.03 155.315 217.404C155.315 218.772 156.318 220.098 156.458 220.285C156.597 220.472 158.395 223.374 161.234 224.492C163.595 225.422 164.078 225.235 164.588 225.186C165.103 225.138 166.24 224.513 166.476 223.861C166.707 223.209 166.707 222.653 166.637 222.535C166.568 222.418 166.38 222.348 166.101 222.209C165.822 222.07 164.448 221.397 164.191 221.3C163.933 221.204 163.745 221.162 163.563 221.439C163.375 221.717 162.838 222.343 162.677 222.53C162.516 222.717 162.35 222.738 162.071 222.599C161.792 222.46 160.89 222.166 159.823 221.215C158.991 220.477 158.427 219.563 158.266 219.285C158.105 219.007 158.25 218.858 158.39 218.719C158.513 218.596 158.669 218.393 158.808 218.232C158.948 218.072 158.996 217.954 159.087 217.767C159.179 217.58 159.136 217.42 159.066 217.281C158.996 217.142 158.449 215.768 158.202 215.218Z" fill="white"/>
<path fill-rule="evenodd" clip-rule="evenodd" d="M122 224C122 222.9 121.1 222 120 222C118.9 222 118 222.9 118 224C118 225.1 118.9 226 120 226C121.1 226 122 225.1 122 224ZM124 224C124 225.1 124.9 226 126 226C127.1 226 128 225.1 128 224C128 222.9 127.1 222 126 222C124.9 222 124 222.9 124 224ZM130 224C130 225.1 130.9 226 132 226C133.1 226 134 225.1 134 224C134 222.9 133.1 222 132 222C130.9 222 130 222.9 130 224Z" fill="#282828"/>
<path d="M291.467 74.1369C291.467 74.1369 291.469 74.1365 291.469 74.1365V62.8878C291.282 62.7924 289.262 61.182 286.306 61.0256L285.812 61V72.2518L286.259 72.2733C289.475 72.4268 291.085 73.9421 291.467 74.1369Z" fill="#282828"/>
<path d="M292.406 62.6887V73.943C293.11 73.819 294.154 73.6835 295.407 73.6928C297.375 73.7075 298.62 74.0655 299 74.1268V62.8832C298.846 62.866 297.443 62.4544 295.407 62.43C294.519 62.4193 293.501 62.4871 292.406 62.6887ZM293.813 70.7948V65.2933L297.939 68.044L293.813 70.7948Z" fill="#282828"/>
<path d="M294.75 67.0448V69.0433L296.249 68.0441L294.75 67.0448Z" fill="#282828"/>
<path d="M288.941 73.7766C288.243 73.4989 287.328 73.2629 286.214 73.2099L284.875 73.1454V62.6072C283.797 62.7675 283.221 62.9406 283 62.9903V74.2697L283.582 74.1236C285.321 73.6894 287.163 73.5761 288.941 73.7766Z" fill="#282828"/>
<path d="M335.2 57H325.6C324.72 57 324 57.72 324 58.6V71.4C324 72.28 324.72 73 325.6 73H335.2C336.08 73 336.8 72.28 336.8 71.4V58.6C336.8 57.72 336.08 57 335.2 57ZM325.6 58.6H329.6V65L327.6 63.8L325.6 65V58.6Z" fill="#282828"/>
<path d="M247 101V115L258 108L247 101Z" fill="black"/>
<path d="M103 139H109V141H103V139ZM103 151V149H121V151H103ZM103 144H115V146H103V144Z" fill="black"/>
<path d="M103 194H109V192H103V194ZM103 182V184H121V182H103ZM103 189H115V187H103V189Z" fill="black"/>
<path d="M45 188C45 194.627 39.6274 200 33 200C26.3726 200 21 194.627 21 188C21 181.373 26.3726 176 33 176C39.6274 176 45 181.373 45 188ZM23.0012 188C23.0012 193.522 27.4778 197.999 33 197.999C38.5222 197.999 42.9988 193.522 42.9988 188C42.9988 182.478 38.5222 178.001 33 178.001C27.4778 178.001 23.0012 182.478 23.0012 188Z" fill="#167BD9"/>
<path d="M30.4999 191.475L27.0249 188L25.8416 189.175L30.4999 193.833L40.4999 183.833L39.3249 182.658L30.4999 191.475Z" fill="#CBCBCB"/>
<path d="M45 220C45 226.627 39.6274 232 33 232C26.3726 232 21 226.627 21 220C21 213.373 26.3726 208 33 208C39.6274 208 45 213.373 45 220ZM23.0012 220C23.0012 225.522 27.4778 229.999 33 229.999C38.5222 229.999 42.9988 225.522 42.9988 220C42.9988 214.478 38.5222 210.001 33 210.001C27.4778 210.001 23.0012 214.478 23.0012 220Z" fill="#167BD9"/>
<path d="M68.9999 224.17L64.8299 220L63.4099 221.41L68.9999 227L80.9999 215L79.5899 213.59L68.9999 224.17Z" fill="#167BD9"/>
<rect x="0.5" y="0.5" width="373" height="249" rx="4.5" stroke="#7B61FF" stroke-dasharray="10 5"/>
<defs>
<linearGradient id="paint0_linear" x1="160.952" y1="230.835" x2="160.952" y2="209.123" gradientUnits="userSpaceOnUse">
<stop stop-color="#20B038"/>
<stop offset="1" stop-color="#60D66A"/>
</linearGradient>
<clipPath id="clip0">
<rect width="24" height="24" fill="white" transform="translate(216 203)"/>
</clipPath>
</defs>
</svg>
