<svg width="134" height="40" viewBox="0 0 134 40" fill="none" xmlns="http://www.w3.org/2000/svg">
<path d="M0 27.5827H3.33173V21.5469H7.09685C11.2683 21.5469 14.6813 19.3472 14.6813 15.1356C14.6813 11.2995 11.8913 8.80477 7.47607 8.80477H0V27.5827ZM3.33173 18.5693V11.8092H7.2052C9.69722 11.8092 11.2954 12.9627 11.2954 15.1624C11.2954 17.1744 9.72431 18.5693 7.2052 18.5693H3.33173Z" fill="#282828"/>
<path d="M17.7142 27.5827H20.9917V19.5887C20.9917 17.389 22.319 16.0745 24.2151 16.0745C26.1654 16.0745 27.276 17.3353 27.276 19.535V27.5827H30.5535V18.5693C30.5535 15.2697 28.6845 13.1237 25.4611 13.1237C23.24 13.1237 21.9127 14.2772 20.9917 15.6185V8H17.7142V27.5827Z" fill="#282828"/>
<path d="M41.3103 27.9046C45.7255 27.9046 48.976 24.5514 48.976 20.5276C48.976 16.4232 45.7526 13.1237 41.3645 13.1237C36.9764 13.1237 33.7259 16.4769 33.7259 20.5276C33.7259 24.6051 36.9493 27.9046 41.3103 27.9046ZM41.3645 25.0879C38.8183 25.0879 37.0035 22.9955 37.0035 20.5276C37.0035 18.006 38.6829 15.9672 41.3103 15.9672C43.8836 15.9672 45.6984 18.0328 45.6984 20.5276C45.6984 23.0223 44.019 25.0879 41.3645 25.0879Z" fill="#282828"/>
<path d="M57.1083 27.8241C58.3272 27.8241 59.2482 27.5559 60.0608 27.0998V24.4441C59.4107 24.766 58.7606 24.927 58.0293 24.927C56.9187 24.927 56.2686 24.4173 56.2686 23.1565V16.2086H60.115V13.4188H56.2686V9.52906H52.991V13.4188H51.1762V16.2086H52.991V23.6662C52.991 26.7779 54.6975 27.8241 57.1083 27.8241Z" fill="#282828"/>
<path d="M69.826 27.9046C74.2412 27.9046 77.4916 24.5514 77.4916 20.5276C77.4916 16.4232 74.2683 13.1237 69.8801 13.1237C65.492 13.1237 62.2415 16.4769 62.2415 20.5276C62.2415 24.6051 65.4649 27.9046 69.826 27.9046ZM69.8801 25.0879C67.3339 25.0879 65.5191 22.9955 65.5191 20.5276C65.5191 18.006 67.1985 15.9672 69.826 15.9672C72.3992 15.9672 74.2141 18.0328 74.2141 20.5276C74.2141 23.0223 72.5347 25.0879 69.8801 25.0879Z" fill="#282828"/>
<path d="M85.8677 27.5827H89.2265V11.8629H95.2399V8.80477H79.8544V11.8629H85.8677V27.5827Z" fill="#282828"/>
<path d="M97.9454 11.2459H101.467V8.16095H97.9454V11.2459ZM98.0809 27.5827H101.358V13.4188H98.0809V27.5827Z" fill="#282828"/>
<path d="M105.642 31.8748H108.919V25.383C109.922 26.6974 111.411 27.8778 113.768 27.8778C117.181 27.8778 120.431 25.222 120.431 20.5276C120.431 15.7794 117.154 13.1237 113.768 13.1237C111.466 13.1237 109.976 14.304 108.919 15.7794V13.4188H105.642V31.8748ZM113.01 25.0611C110.788 25.0611 108.838 23.2638 108.838 20.5276C108.838 17.7645 110.788 15.9404 113.01 15.9404C115.231 15.9404 117.1 17.7377 117.1 20.4739C117.1 23.3174 115.258 25.0611 113.01 25.0611Z" fill="#282828"/>
<path d="M128.691 27.851C131.67 27.851 134 26.3755 134 23.3979C134 20.7958 131.643 19.8569 129.558 19.2131C129.476 19.1863 129.368 19.1595 129.287 19.1326C127.716 18.6229 126.334 18.1937 126.334 17.228C126.334 16.3428 127.066 15.7526 128.339 15.7526C129.531 15.7526 130.993 16.2623 132.375 17.0939L133.675 14.7869C132.158 13.7943 130.208 13.1773 128.42 13.1773C125.576 13.1773 123.328 14.8137 123.328 17.4963C123.328 20.2593 125.684 21.1177 127.797 21.7347C127.878 21.7615 127.96 21.7884 128.041 21.8152C129.612 22.2712 130.993 22.6468 130.993 23.693C130.993 24.6855 130.181 25.2757 128.772 25.2757C127.309 25.2757 125.63 24.6855 124.086 23.532L122.623 25.7317C124.411 27.1267 126.659 27.851 128.691 27.851Z" fill="#282828"/>
<ellipse cx="69.8061" cy="20.745" rx="4.80462" ry="4.75823" fill="#282828"/>
<ellipse cx="69.8063" cy="20.745" rx="4.36784" ry="4.32566" fill="#F5F5F5"/>
<path d="M77.5789 20.7449C77.5789 24.9958 74.0993 28.4418 69.807 28.4418C65.5146 28.4418 62.035 24.9958 62.035 20.7449C62.035 16.494 65.5146 13.048 69.807 13.048C74.0993 13.048 77.5789 16.494 77.5789 20.7449ZM64.3666 20.7449C64.3666 23.7205 66.8023 26.1327 69.807 26.1327C72.8116 26.1327 75.2473 23.7205 75.2473 20.7449C75.2473 17.7693 72.8116 15.3571 69.807 15.3571C66.8023 15.3571 64.3666 17.7693 64.3666 20.7449Z" fill="#282828"/>
<path d="M76.6856 20.745C76.6856 24.5077 73.6056 27.5579 69.8062 27.5579C66.0069 27.5579 62.9269 24.5077 62.9269 20.745C62.9269 16.9824 66.0069 13.9321 69.8062 13.9321C73.6056 13.9321 76.6856 16.9824 76.6856 20.745ZM64.9907 20.745C64.9907 23.3789 67.1467 25.5141 69.8062 25.5141C72.4658 25.5141 74.6218 23.3789 74.6218 20.745C74.6218 18.1112 72.4658 15.976 69.8062 15.976C67.1467 15.976 64.9907 18.1112 64.9907 20.745Z" fill="#F5F5F5"/>
</svg>
