<svg width="287" height="81" viewBox="0 0 287 81" fill="none" xmlns="http://www.w3.org/2000/svg">
<g opacity="0.66">
<path d="M250.017 41.0433L239.354 51.7065L241.36 53.7129L254.206 40.8665L241.36 28.0201L239.354 30.0265L250.017 40.6897L250.194 40.8665L250.017 41.0433Z" fill="#F5F5F5" stroke="#282828" stroke-width="0.5"/>
</g>
<path d="M187.017 41.0433L176.354 51.7065L178.36 53.7129L191.206 40.8665L178.36 28.0201L176.354 30.0265L187.017 40.6897L187.194 40.8665L187.017 41.0433Z" fill="white" stroke="#282828" stroke-width="0.5"/>
<g opacity="0.66">
<path d="M36.9832 40.0433L47.6465 50.7065L45.64 52.7129L32.7936 39.8665L45.64 27.0201L47.6465 29.0265L36.9832 39.6897L36.8065 39.8665L36.9832 40.0433Z" fill="#F5F5F5" stroke="#282828" stroke-width="0.5"/>
</g>
<path d="M100.983 40.0433L111.646 50.7065L109.64 52.7129L96.7936 39.8665L109.64 27.0201L111.646 29.0265L100.983 39.6897L100.806 39.8665L100.983 40.0433Z" fill="white" stroke="#282828" stroke-width="0.5"/>
</svg>
